<svg xmlns="http://www.w3.org/2000/svg" xmlns:xlink="http://www.w3.org/1999/xlink" width="500" zoomAndPan="magnify" viewBox="0 0 375 374.999991" height="500" preserveAspectRatio="xMidYMid meet" version="1.0"><defs><g/><clipPath id="2b57a8ce15"><rect x="0" width="127" y="0" height="14"/></clipPath><clipPath id="b0b0543245"><path d="M 314.371094 208.328125 L 340.621094 208.328125 L 340.621094 234.578125 L 314.371094 234.578125 Z M 314.371094 208.328125 " clip-rule="nonzero"/></clipPath></defs><g fill="#e4e2dd" fill-opacity="1"><g transform="translate(41.698431, 215.624986)"><g><path d="M 62.578125 -22.125 C 62.804688 -19.0625 62.195312 -16.210938 60.75 -13.578125 C 59.300781 -10.941406 57.238281 -8.628906 54.5625 -6.640625 C 51.882812 -4.660156 48.726562 -3.078125 45.09375 -1.890625 C 41.46875 -0.703125 37.671875 -0.0703125 33.703125 0 C 35.078125 -0.15625 36.394531 -0.578125 37.65625 -1.265625 C 38.914062 -1.953125 40.039062 -2.8125 41.03125 -3.84375 C 42.03125 -4.875 42.816406 -6.054688 43.390625 -7.390625 C 43.960938 -8.734375 44.25 -10.128906 44.25 -11.578125 C 44.25 -14.484375 43.234375 -17.234375 41.203125 -19.828125 C 39.179688 -22.429688 36.625 -24.972656 33.53125 -27.453125 C 30.4375 -29.929688 27.109375 -32.429688 23.546875 -34.953125 C 19.992188 -37.484375 16.671875 -40.125 13.578125 -42.875 C 10.484375 -45.625 7.921875 -48.523438 5.890625 -51.578125 C 3.867188 -54.640625 2.859375 -57.960938 2.859375 -61.546875 C 2.859375 -64.992188 3.796875 -67.898438 5.671875 -70.265625 C 7.546875 -72.628906 9.914062 -74.554688 12.78125 -76.046875 C 15.644531 -77.535156 18.773438 -78.601562 22.171875 -79.25 C 25.578125 -79.90625 28.847656 -80.234375 31.984375 -80.234375 L 33.703125 -80.234375 C 31.023438 -80.003906 28.65625 -79.007812 26.59375 -77.25 C 24.53125 -75.5 23.382812 -73.019531 23.15625 -69.8125 C 22.925781 -66.832031 23.707031 -64.078125 25.5 -61.546875 C 27.300781 -59.023438 29.59375 -56.597656 32.375 -54.265625 C 35.164062 -51.941406 38.257812 -49.632812 41.65625 -47.34375 C 45.0625 -45.050781 48.253906 -42.625 51.234375 -40.0625 C 54.210938 -37.5 56.769531 -34.765625 58.90625 -31.859375 C 61.050781 -28.960938 62.273438 -25.71875 62.578125 -22.125 Z M 57.421875 -58.578125 C 56.960938 -60.867188 56.140625 -63.195312 54.953125 -65.5625 C 53.773438 -67.9375 52.285156 -70.15625 50.484375 -72.21875 C 48.691406 -74.28125 46.628906 -76.015625 44.296875 -77.421875 C 41.972656 -78.835938 39.4375 -79.703125 36.6875 -80.015625 C 39.125 -79.785156 41.429688 -79.492188 43.609375 -79.140625 C 45.785156 -78.796875 48.097656 -78.625 50.546875 -78.625 C 51.847656 -78.625 53.128906 -78.738281 54.390625 -78.96875 C 55.648438 -79.207031 56.660156 -79.628906 57.421875 -80.234375 Z M 20.625 -5.5 C 20.851562 -4.195312 21.847656 -2.992188 23.609375 -1.890625 C 25.367188 -0.785156 27.851562 -0.15625 31.0625 0 C 27.164062 -0.15625 23.515625 -0.765625 20.109375 -1.828125 C 16.710938 -2.898438 13.734375 -4.316406 11.171875 -6.078125 C 8.617188 -7.835938 6.59375 -9.878906 5.09375 -12.203125 C 3.601562 -14.535156 2.859375 -17.078125 2.859375 -19.828125 C 2.859375 -21.515625 3.179688 -23.101562 3.828125 -24.59375 C 4.484375 -26.082031 5.363281 -27.378906 6.46875 -28.484375 C 7.582031 -29.585938 8.882812 -30.460938 10.375 -31.109375 C 11.863281 -31.765625 13.445312 -32.09375 15.125 -32.09375 C 16.8125 -32.09375 18.398438 -31.765625 19.890625 -31.109375 C 21.378906 -30.460938 22.675781 -29.585938 23.78125 -28.484375 C 24.894531 -27.378906 25.773438 -26.082031 26.421875 -24.59375 C 27.066406 -23.101562 27.390625 -21.515625 27.390625 -19.828125 C 27.390625 -18.148438 27.066406 -16.546875 26.421875 -15.015625 C 25.773438 -13.484375 24.914062 -12.1875 23.84375 -11.125 C 22.625 -9.820312 21.742188 -8.828125 21.203125 -8.140625 C 20.671875 -7.453125 20.476562 -6.570312 20.625 -5.5 Z M 20.625 -5.5 "/></g></g></g><g fill="#e4e2dd" fill-opacity="1"><g transform="translate(99.237901, 215.624986)"><g><path d="M 38.96875 -6.765625 C 41.1875 -6.765625 43.363281 -7.316406 45.5 -8.421875 C 47.644531 -9.535156 49.519531 -11.082031 51.125 -13.0625 C 48.832031 -8.9375 45.738281 -5.628906 41.84375 -3.140625 C 37.945312 -0.660156 33.664062 0.578125 29 0.578125 C 25.40625 0.578125 22.019531 -0.1875 18.84375 -1.71875 C 15.675781 -3.25 12.90625 -5.3125 10.53125 -7.90625 C 8.164062 -10.507812 6.296875 -13.566406 4.921875 -17.078125 C 3.546875 -20.597656 2.859375 -24.378906 2.859375 -28.421875 C 2.859375 -32.398438 3.546875 -36.164062 4.921875 -39.71875 C 6.296875 -43.269531 8.164062 -46.34375 10.53125 -48.9375 C 12.90625 -51.539062 15.675781 -53.601562 18.84375 -55.125 C 22.019531 -56.65625 25.40625 -57.421875 29 -57.421875 C 28.238281 -57.273438 27.34375 -56.570312 26.3125 -55.3125 C 25.28125 -54.050781 24.304688 -52.382812 23.390625 -50.3125 C 22.472656 -48.25 21.6875 -45.863281 21.03125 -43.15625 C 20.382812 -40.445312 20.0625 -37.5625 20.0625 -34.5 C 20.0625 -30.675781 20.554688 -27.082031 21.546875 -23.71875 C 22.546875 -20.363281 23.90625 -17.425781 25.625 -14.90625 C 27.34375 -12.382812 29.347656 -10.394531 31.640625 -8.9375 C 33.929688 -7.488281 36.375 -6.765625 38.96875 -6.765625 Z M 37.59375 -37.828125 C 37.59375 -40.117188 37.398438 -42.351562 37.015625 -44.53125 C 36.640625 -46.707031 36.144531 -48.675781 35.53125 -50.4375 C 34.914062 -52.195312 34.171875 -53.6875 33.296875 -54.90625 C 32.421875 -56.125 31.484375 -56.960938 30.484375 -57.421875 C 33.390625 -57.191406 36.101562 -56.46875 38.625 -55.25 C 41.144531 -54.03125 43.398438 -52.425781 45.390625 -50.4375 C 47.378906 -48.445312 49.039062 -46.113281 50.375 -43.4375 C 51.71875 -40.769531 52.691406 -37.867188 53.296875 -34.734375 L 34.390625 -34.734375 C 35.222656 -34.734375 35.960938 -35.035156 36.609375 -35.640625 C 37.265625 -36.253906 37.59375 -36.984375 37.59375 -37.828125 Z M 37.59375 -37.828125 "/></g></g></g><g fill="#e4e2dd" fill-opacity="1"><g transform="translate(147.378443, 215.624986)"><g><path d="M 50.78125 -43.5625 C 50.78125 -40.195312 50.507812 -37.0625 49.96875 -34.15625 C 50.28125 -36.070312 50.164062 -37.640625 49.625 -38.859375 C 49.09375 -40.078125 48.0625 -40.6875 46.53125 -40.6875 C 45.539062 -40.6875 44.703125 -40.550781 44.015625 -40.28125 C 43.328125 -40.019531 42.445312 -39.890625 41.375 -39.890625 C 40.15625 -39.890625 38.988281 -40.117188 37.875 -40.578125 C 36.769531 -41.035156 35.816406 -41.664062 35.015625 -42.46875 C 34.210938 -43.269531 33.582031 -44.203125 33.125 -45.265625 C 32.664062 -46.335938 32.4375 -47.488281 32.4375 -48.71875 C 32.4375 -51.164062 33.316406 -53.265625 35.078125 -55.015625 C 36.835938 -56.773438 38.9375 -57.65625 41.375 -57.65625 C 43.132812 -57.65625 44.71875 -57.195312 46.125 -56.28125 C 47.539062 -55.363281 48.59375 -54.140625 49.28125 -52.609375 C 49.976562 -51.234375 50.398438 -49.722656 50.546875 -48.078125 C 50.703125 -46.441406 50.78125 -44.9375 50.78125 -43.5625 Z M 18.796875 -5.390625 C 18.796875 -4.085938 19.390625 -3.035156 20.578125 -2.234375 C 21.765625 -1.429688 23.390625 -1.109375 25.453125 -1.265625 C 26.597656 -1.410156 27.835938 -1.675781 29.171875 -2.0625 C 30.503906 -2.445312 31.707031 -2.941406 32.78125 -3.546875 C 30.875 -2.253906 28.925781 -1.242188 26.9375 -0.515625 C 24.945312 0.210938 22.921875 0.578125 20.859375 0.578125 C 16.960938 0.578125 13.769531 -0.773438 11.28125 -3.484375 C 8.800781 -6.203125 7.5625 -10.238281 7.5625 -15.59375 L 7.5625 -47.109375 C 7.5625 -48.554688 7.101562 -49.910156 6.1875 -51.171875 C 5.269531 -52.441406 4.160156 -53.191406 2.859375 -53.421875 L 22.46875 -56.28125 L 22.8125 -56.28125 C 24.113281 -56.28125 24.765625 -55.628906 24.765625 -54.328125 L 24.765625 -16.96875 C 24.765625 -15.507812 24.457031 -14.285156 23.84375 -13.296875 C 23.226562 -12.304688 22.535156 -11.410156 21.765625 -10.609375 C 21.003906 -9.804688 20.316406 -9 19.703125 -8.1875 C 19.097656 -7.382812 18.796875 -6.453125 18.796875 -5.390625 Z M 18.796875 -5.390625 "/></g></g></g><g fill="#e4e2dd" fill-opacity="1"><g transform="translate(192.997313, 215.624986)"><g><path d="M 24.765625 -6.296875 C 24.765625 -4.921875 25.222656 -3.582031 26.140625 -2.28125 C 27.054688 -0.988281 28.160156 -0.226562 29.453125 0 L 2.859375 0 C 4.160156 -0.226562 5.269531 -0.988281 6.1875 -2.28125 C 7.101562 -3.582031 7.5625 -4.921875 7.5625 -6.296875 L 7.5625 -47.109375 C 7.5625 -48.554688 7.101562 -49.910156 6.1875 -51.171875 C 5.269531 -52.441406 4.160156 -53.191406 2.859375 -53.421875 L 22.46875 -56.28125 L 22.8125 -56.28125 C 24.113281 -56.28125 24.765625 -55.628906 24.765625 -54.328125 Z M 16.15625 -62.46875 C 13.71875 -62.46875 11.640625 -63.328125 9.921875 -65.046875 C 8.203125 -66.765625 7.34375 -68.847656 7.34375 -71.296875 C 7.34375 -73.742188 8.203125 -75.84375 9.921875 -77.59375 C 11.640625 -79.351562 13.71875 -80.234375 16.15625 -80.234375 C 18.601562 -80.234375 20.707031 -79.351562 22.46875 -77.59375 C 24.226562 -75.84375 25.109375 -73.742188 25.109375 -71.296875 C 25.109375 -70.078125 24.878906 -68.929688 24.421875 -67.859375 C 23.960938 -66.785156 23.328125 -65.847656 22.515625 -65.046875 C 21.710938 -64.242188 20.757812 -63.613281 19.65625 -63.15625 C 18.550781 -62.695312 17.382812 -62.46875 16.15625 -62.46875 Z M 16.15625 -62.46875 "/></g></g></g><g fill="#e4e2dd" fill-opacity="1"><g transform="translate(217.296655, 215.624986)"><g><path d="M 24.765625 -6.296875 C 24.765625 -4.921875 25.222656 -3.582031 26.140625 -2.28125 C 27.054688 -0.988281 28.160156 -0.226562 29.453125 0 L 2.859375 0 C 4.160156 -0.226562 5.269531 -0.988281 6.1875 -2.28125 C 7.101562 -3.582031 7.5625 -4.921875 7.5625 -6.296875 L 7.5625 -71.0625 C 7.5625 -72.4375 7.101562 -73.773438 6.1875 -75.078125 C 5.269531 -76.378906 4.160156 -77.144531 2.859375 -77.375 L 22.46875 -80.234375 L 22.8125 -80.234375 C 23.425781 -80.234375 23.90625 -80.039062 24.25 -79.65625 C 24.59375 -79.28125 24.765625 -78.785156 24.765625 -78.171875 Z M 24.765625 -6.296875 "/></g></g></g><g fill="#e4e2dd" fill-opacity="1"><g transform="translate(241.595985, 215.624986)"><g><path d="M 24.765625 -6.296875 C 24.765625 -4.921875 25.222656 -3.582031 26.140625 -2.28125 C 27.054688 -0.988281 28.160156 -0.226562 29.453125 0 L 2.859375 0 C 4.160156 -0.226562 5.269531 -0.988281 6.1875 -2.28125 C 7.101562 -3.582031 7.5625 -4.921875 7.5625 -6.296875 L 7.5625 -71.0625 C 7.5625 -72.4375 7.101562 -73.773438 6.1875 -75.078125 C 5.269531 -76.378906 4.160156 -77.144531 2.859375 -77.375 L 22.46875 -80.234375 L 22.8125 -80.234375 C 23.425781 -80.234375 23.90625 -80.039062 24.25 -79.65625 C 24.59375 -79.28125 24.765625 -78.785156 24.765625 -78.171875 Z M 24.765625 -6.296875 "/></g></g></g><g fill="#e4e2dd" fill-opacity="1"><g transform="translate(265.895338, 215.624986)"><g><path d="M 15.25 -32.203125 C 12.800781 -32.203125 10.71875 -33.0625 9 -34.78125 C 7.28125 -36.507812 6.421875 -38.59375 6.421875 -41.03125 C 6.421875 -42.945312 6.992188 -44.820312 8.140625 -46.65625 C 9.285156 -48.488281 10.773438 -50.128906 12.609375 -51.578125 C 14.441406 -53.035156 16.503906 -54.257812 18.796875 -55.25 C 21.085938 -56.238281 23.378906 -56.847656 25.671875 -57.078125 C 23.609375 -56.773438 22.019531 -56.164062 20.90625 -55.25 C 19.800781 -54.332031 19.25 -53.265625 19.25 -52.046875 C 19.25 -51.203125 19.476562 -50.378906 19.9375 -49.578125 C 20.394531 -48.773438 20.972656 -47.953125 21.671875 -47.109375 C 23.347656 -45.578125 24.1875 -43.550781 24.1875 -41.03125 C 24.1875 -38.59375 23.304688 -36.507812 21.546875 -34.78125 C 19.785156 -33.0625 17.6875 -32.203125 15.25 -32.203125 Z M 49.859375 -8.59375 C 49.859375 -7.21875 50.316406 -5.878906 51.234375 -4.578125 C 52.148438 -3.285156 53.257812 -2.523438 54.5625 -2.296875 L 34.84375 0.578125 L 34.609375 0.578125 C 34.003906 0.578125 33.507812 0.382812 33.125 0 C 32.738281 -0.382812 32.546875 -0.878906 32.546875 -1.484375 L 32.546875 -34.609375 C 31.628906 -34.148438 30.503906 -33.578125 29.171875 -32.890625 C 27.835938 -32.203125 26.539062 -31.285156 25.28125 -30.140625 C 24.019531 -28.992188 22.910156 -27.539062 21.953125 -25.78125 C 20.992188 -24.03125 20.398438 -21.816406 20.171875 -19.140625 C 19.941406 -16.390625 20.148438 -13.960938 20.796875 -11.859375 C 21.453125 -9.765625 22.390625 -8.066406 23.609375 -6.765625 C 24.835938 -5.460938 26.289062 -4.539062 27.96875 -4 C 29.644531 -3.46875 31.097656 -3.507812 32.328125 -4.125 C 30.953125 -3.132812 29.117188 -2.101562 26.828125 -1.03125 C 24.535156 0.0390625 21.820312 0.578125 18.6875 0.578125 C 15.09375 0.578125 11.84375 -0.375 8.9375 -2.28125 C 6.03125 -4.195312 4.160156 -6.757812 3.328125 -9.96875 C 2.410156 -13.257812 2.734375 -16.453125 4.296875 -19.546875 C 5.859375 -22.640625 8.25 -25.179688 11.46875 -27.171875 C 13.144531 -28.160156 15.1875 -29.128906 17.59375 -30.078125 C 20 -31.035156 22.554688 -31.972656 25.265625 -32.890625 C 27.984375 -33.804688 30.679688 -34.722656 33.359375 -35.640625 C 36.035156 -36.566406 38.460938 -37.5625 40.640625 -38.625 C 42.816406 -39.695312 44.609375 -40.84375 46.015625 -42.0625 C 47.429688 -43.289062 48.175781 -44.664062 48.25 -46.1875 C 48.332031 -47.101562 48.160156 -48.078125 47.734375 -49.109375 C 47.316406 -50.148438 46.726562 -51.085938 45.96875 -51.921875 C 48.03125 -49.929688 49.289062 -47.640625 49.75 -45.046875 C 49.820312 -44.742188 49.859375 -44.4375 49.859375 -44.125 C 49.859375 -43.820312 49.859375 -43.519531 49.859375 -43.21875 Z M 49.859375 -8.59375 "/></g></g></g><g transform="matrix(1, 0, 0, 1, 191, 219)"><g clip-path="url(#2b57a8ce15)"><g fill="#e4e2dd" fill-opacity="1"><g transform="translate(1.183276, 10.542387)"><g><path d="M 5.796875 -5.546875 L 3.953125 -5.546875 L 3 0 L 2.234375 0 L 3.171875 -5.546875 L 1.34375 -5.546875 L 1.453125 -6.234375 L 5.890625 -6.234375 Z M 5.796875 -5.546875 "/></g></g></g><g fill="#e4e2dd" fill-opacity="1"><g transform="translate(8.322326, 10.542387)"><g><path d="M 4.609375 -1.8125 L 2.078125 -1.8125 L 1.109375 0 L 0.328125 0 L 3.71875 -6.234375 L 4.453125 -6.234375 L 5.75 0 L 4.96875 0 Z M 4.5 -2.4375 L 3.953125 -5.25 L 3.90625 -5.25 L 2.40625 -2.4375 Z M 4.5 -2.4375 "/></g></g></g><g fill="#e4e2dd" fill-opacity="1"><g transform="translate(16.271421, 10.542387)"><g><path d="M 5.71875 -4.6875 C 5.71875 -4.351562 5.640625 -4.035156 5.484375 -3.734375 C 5.335938 -3.429688 5.117188 -3.171875 4.828125 -2.953125 C 4.535156 -2.742188 4.1875 -2.601562 3.78125 -2.53125 L 5 0 L 4.15625 0 L 2.96875 -2.484375 L 1.859375 -2.484375 L 1.4375 0 L 0.671875 0 L 1.734375 -6.234375 L 3.84375 -6.234375 C 4.488281 -6.234375 4.960938 -6.085938 5.265625 -5.796875 C 5.566406 -5.503906 5.71875 -5.132812 5.71875 -4.6875 Z M 3.21875 -3.140625 C 3.757812 -3.140625 4.179688 -3.269531 4.484375 -3.53125 C 4.796875 -3.800781 4.953125 -4.160156 4.953125 -4.609375 C 4.953125 -4.953125 4.828125 -5.191406 4.578125 -5.328125 C 4.328125 -5.472656 4.015625 -5.546875 3.640625 -5.546875 L 2.375 -5.546875 L 1.96875 -3.140625 Z M 3.21875 -3.140625 "/></g></g></g><g fill="#e4e2dd" fill-opacity="1"><g transform="translate(23.552896, 10.542387)"><g><path d="M 1.046875 0.03125 C 0.785156 0.03125 0.585938 0.0078125 0.453125 -0.03125 L 0.546875 -0.59375 C 0.679688 -0.570312 0.816406 -0.5625 0.953125 -0.5625 C 1.253906 -0.5625 1.457031 -0.632812 1.5625 -0.78125 C 1.675781 -0.925781 1.753906 -1.128906 1.796875 -1.390625 L 2.625 -6.234375 L 3.390625 -6.234375 L 2.53125 -1.21875 C 2.46875 -0.875 2.332031 -0.578125 2.125 -0.328125 C 1.914062 -0.0859375 1.554688 0.03125 1.046875 0.03125 Z M 1.046875 0.03125 "/></g></g></g><g fill="#e4e2dd" fill-opacity="1"><g transform="translate(28.537764, 10.542387)"><g><path d="M 2.390625 -5.546875 L 2.046875 -3.484375 L 4.734375 -3.484375 L 4.625 -2.875 L 1.9375 -2.875 L 1.5625 -0.6875 L 4.625 -0.6875 L 4.5 0 L 0.671875 0 L 1.734375 -6.234375 L 5.5625 -6.234375 L 5.453125 -5.546875 Z M 2.390625 -5.546875 "/></g></g></g><g fill="#e4e2dd" fill-opacity="1"><g transform="translate(35.498779, 10.542387)"><g><path d="M 5.796875 -5.546875 L 3.953125 -5.546875 L 3 0 L 2.234375 0 L 3.171875 -5.546875 L 1.34375 -5.546875 L 1.453125 -6.234375 L 5.890625 -6.234375 Z M 5.796875 -5.546875 "/></g></g></g><g fill="#e4e2dd" fill-opacity="1"><g transform="translate(42.637829, 10.542387)"><g><path d="M 4.609375 -1.8125 L 2.078125 -1.8125 L 1.109375 0 L 0.328125 0 L 3.71875 -6.234375 L 4.453125 -6.234375 L 5.75 0 L 4.96875 0 Z M 4.5 -2.4375 L 3.953125 -5.25 L 3.90625 -5.25 L 2.40625 -2.4375 Z M 4.5 -2.4375 "/></g></g></g><g fill="#e4e2dd" fill-opacity="1"><g transform="translate(50.586924, 10.542387)"><g><path d="M 2.703125 0.078125 C 2.222656 0.078125 1.832031 -0.0195312 1.53125 -0.21875 C 1.238281 -0.425781 1.03125 -0.679688 0.90625 -0.984375 C 0.78125 -1.296875 0.722656 -1.628906 0.734375 -1.984375 L 0.734375 -2.03125 L 1.59375 -2.03125 L 1.59375 -1.984375 C 1.59375 -1.617188 1.679688 -1.300781 1.859375 -1.03125 C 2.035156 -0.757812 2.363281 -0.625 2.84375 -0.625 C 3.132812 -0.625 3.394531 -0.679688 3.625 -0.796875 C 3.863281 -0.921875 4.050781 -1.082031 4.1875 -1.28125 C 4.332031 -1.476562 4.40625 -1.695312 4.40625 -1.9375 C 4.40625 -2.164062 4.328125 -2.347656 4.171875 -2.484375 C 4.015625 -2.628906 3.816406 -2.726562 3.578125 -2.78125 L 2.6875 -2.953125 C 1.8125 -3.140625 1.375 -3.585938 1.375 -4.296875 C 1.375 -4.679688 1.476562 -5.03125 1.6875 -5.34375 C 1.894531 -5.664062 2.175781 -5.914062 2.53125 -6.09375 C 2.894531 -6.28125 3.300781 -6.375 3.75 -6.375 C 4.195312 -6.375 4.5625 -6.28125 4.84375 -6.09375 C 5.132812 -5.90625 5.34375 -5.664062 5.46875 -5.375 C 5.59375 -5.09375 5.65625 -4.789062 5.65625 -4.46875 L 5.65625 -4.421875 L 4.78125 -4.421875 L 4.78125 -4.453125 C 4.78125 -4.765625 4.703125 -5.046875 4.546875 -5.296875 C 4.390625 -5.554688 4.078125 -5.6875 3.609375 -5.6875 C 3.347656 -5.6875 3.101562 -5.628906 2.875 -5.515625 C 2.65625 -5.410156 2.484375 -5.257812 2.359375 -5.0625 C 2.234375 -4.863281 2.171875 -4.648438 2.171875 -4.421875 C 2.171875 -4.203125 2.242188 -4.023438 2.390625 -3.890625 C 2.535156 -3.765625 2.734375 -3.675781 2.984375 -3.625 L 3.78125 -3.46875 C 4.75 -3.257812 5.234375 -2.796875 5.234375 -2.078125 C 5.234375 -1.679688 5.117188 -1.316406 4.890625 -0.984375 C 4.671875 -0.660156 4.367188 -0.398438 3.984375 -0.203125 C 3.597656 -0.015625 3.171875 0.078125 2.703125 0.078125 Z M 2.703125 0.078125 "/></g></g></g><g fill="#e4e2dd" fill-opacity="1"><g transform="translate(57.814985, 10.542387)"><g/></g></g><g fill="#e4e2dd" fill-opacity="1"><g transform="translate(61.758372, 10.542387)"><g><path d="M 3.84375 -6.234375 C 4.488281 -6.234375 4.957031 -6.078125 5.25 -5.765625 C 5.539062 -5.453125 5.6875 -5.0625 5.6875 -4.59375 C 5.6875 -4.164062 5.582031 -3.765625 5.375 -3.390625 C 5.175781 -3.015625 4.882812 -2.710938 4.5 -2.484375 C 4.113281 -2.265625 3.664062 -2.15625 3.15625 -2.15625 L 1.78125 -2.15625 L 1.421875 0 L 0.671875 0 L 1.734375 -6.234375 Z M 3.171875 -2.828125 C 3.710938 -2.828125 4.140625 -2.976562 4.453125 -3.28125 C 4.773438 -3.582031 4.9375 -3.988281 4.9375 -4.5 C 4.9375 -4.875 4.8125 -5.140625 4.5625 -5.296875 C 4.3125 -5.460938 4.003906 -5.546875 3.640625 -5.546875 L 2.359375 -5.546875 L 1.890625 -2.828125 Z M 3.171875 -2.828125 "/></g></g></g><g fill="#e4e2dd" fill-opacity="1"><g transform="translate(68.861812, 10.542387)"><g><path d="M 4.46875 -0.6875 L 4.34375 0 L 0.671875 0 L 1.734375 -6.234375 L 2.5 -6.234375 L 1.546875 -0.6875 Z M 4.46875 -0.6875 "/></g></g></g><g fill="#e4e2dd" fill-opacity="1"><g transform="translate(75.466759, 10.542387)"><g><path d="M 4.609375 -1.8125 L 2.078125 -1.8125 L 1.109375 0 L 0.328125 0 L 3.71875 -6.234375 L 4.453125 -6.234375 L 5.75 0 L 4.96875 0 Z M 4.5 -2.4375 L 3.953125 -5.25 L 3.90625 -5.25 L 2.40625 -2.4375 Z M 4.5 -2.4375 "/></g></g></g><g fill="#e4e2dd" fill-opacity="1"><g transform="translate(83.415854, 10.542387)"><g><path d="M 2.703125 0.078125 C 2.222656 0.078125 1.832031 -0.0195312 1.53125 -0.21875 C 1.238281 -0.425781 1.03125 -0.679688 0.90625 -0.984375 C 0.78125 -1.296875 0.722656 -1.628906 0.734375 -1.984375 L 0.734375 -2.03125 L 1.59375 -2.03125 L 1.59375 -1.984375 C 1.59375 -1.617188 1.679688 -1.300781 1.859375 -1.03125 C 2.035156 -0.757812 2.363281 -0.625 2.84375 -0.625 C 3.132812 -0.625 3.394531 -0.679688 3.625 -0.796875 C 3.863281 -0.921875 4.050781 -1.082031 4.1875 -1.28125 C 4.332031 -1.476562 4.40625 -1.695312 4.40625 -1.9375 C 4.40625 -2.164062 4.328125 -2.347656 4.171875 -2.484375 C 4.015625 -2.628906 3.816406 -2.726562 3.578125 -2.78125 L 2.6875 -2.953125 C 1.8125 -3.140625 1.375 -3.585938 1.375 -4.296875 C 1.375 -4.679688 1.476562 -5.03125 1.6875 -5.34375 C 1.894531 -5.664062 2.175781 -5.914062 2.53125 -6.09375 C 2.894531 -6.28125 3.300781 -6.375 3.75 -6.375 C 4.195312 -6.375 4.5625 -6.28125 4.84375 -6.09375 C 5.132812 -5.90625 5.34375 -5.664062 5.46875 -5.375 C 5.59375 -5.09375 5.65625 -4.789062 5.65625 -4.46875 L 5.65625 -4.421875 L 4.78125 -4.421875 L 4.78125 -4.453125 C 4.78125 -4.765625 4.703125 -5.046875 4.546875 -5.296875 C 4.390625 -5.554688 4.078125 -5.6875 3.609375 -5.6875 C 3.347656 -5.6875 3.101562 -5.628906 2.875 -5.515625 C 2.65625 -5.410156 2.484375 -5.257812 2.359375 -5.0625 C 2.234375 -4.863281 2.171875 -4.648438 2.171875 -4.421875 C 2.171875 -4.203125 2.242188 -4.023438 2.390625 -3.890625 C 2.535156 -3.765625 2.734375 -3.675781 2.984375 -3.625 L 3.78125 -3.46875 C 4.75 -3.257812 5.234375 -2.796875 5.234375 -2.078125 C 5.234375 -1.679688 5.117188 -1.316406 4.890625 -0.984375 C 4.671875 -0.660156 4.367188 -0.398438 3.984375 -0.203125 C 3.597656 -0.015625 3.171875 0.078125 2.703125 0.078125 Z M 2.703125 0.078125 "/></g></g></g><g fill="#e4e2dd" fill-opacity="1"><g transform="translate(90.643915, 10.542387)"><g><path d="M 5.796875 -5.546875 L 3.953125 -5.546875 L 3 0 L 2.234375 0 L 3.171875 -5.546875 L 1.34375 -5.546875 L 1.453125 -6.234375 L 5.890625 -6.234375 Z M 5.796875 -5.546875 "/></g></g></g><g fill="#e4e2dd" fill-opacity="1"><g transform="translate(97.782965, 10.542387)"><g><path d="M 1.75 -6.234375 L 2.53125 -6.234375 L 1.46875 0 L 0.6875 0 Z M 1.75 -6.234375 "/></g></g></g><g fill="#e4e2dd" fill-opacity="1"><g transform="translate(101.842064, 10.542387)"><g><path d="M 3.28125 0.0625 C 2.53125 0.0625 1.953125 -0.160156 1.546875 -0.609375 C 1.148438 -1.054688 0.953125 -1.648438 0.953125 -2.390625 C 0.953125 -3.117188 1.101562 -3.785156 1.40625 -4.390625 C 1.707031 -5.003906 2.117188 -5.488281 2.640625 -5.84375 C 3.160156 -6.195312 3.738281 -6.375 4.375 -6.375 C 5.070312 -6.375 5.617188 -6.175781 6.015625 -5.78125 C 6.410156 -5.382812 6.625 -4.847656 6.65625 -4.171875 L 5.90625 -4.171875 C 5.863281 -4.628906 5.695312 -4.992188 5.40625 -5.265625 C 5.125 -5.535156 4.75 -5.671875 4.28125 -5.671875 C 3.800781 -5.671875 3.367188 -5.53125 2.984375 -5.25 C 2.597656 -4.976562 2.296875 -4.59375 2.078125 -4.09375 C 1.867188 -3.601562 1.765625 -3.050781 1.765625 -2.4375 C 1.765625 -1.875 1.898438 -1.429688 2.171875 -1.109375 C 2.453125 -0.796875 2.863281 -0.640625 3.40625 -0.640625 C 3.84375 -0.640625 4.242188 -0.757812 4.609375 -1 C 4.972656 -1.238281 5.257812 -1.5625 5.46875 -1.96875 L 6.234375 -1.96875 C 5.960938 -1.351562 5.566406 -0.859375 5.046875 -0.484375 C 4.535156 -0.117188 3.945312 0.0625 3.28125 0.0625 Z M 3.28125 0.0625 "/></g></g></g><g fill="#e4e2dd" fill-opacity="1"><g transform="translate(110.076009, 10.542387)"><g><path d="M 4.609375 -1.8125 L 2.078125 -1.8125 L 1.109375 0 L 0.328125 0 L 3.71875 -6.234375 L 4.453125 -6.234375 L 5.75 0 L 4.96875 0 Z M 4.5 -2.4375 L 3.953125 -5.25 L 3.90625 -5.25 L 2.40625 -2.4375 Z M 4.5 -2.4375 "/></g></g></g><g fill="#e4e2dd" fill-opacity="1"><g transform="translate(118.025104, 10.542387)"><g><path d="M 2.703125 0.078125 C 2.222656 0.078125 1.832031 -0.0195312 1.53125 -0.21875 C 1.238281 -0.425781 1.03125 -0.679688 0.90625 -0.984375 C 0.78125 -1.296875 0.722656 -1.628906 0.734375 -1.984375 L 0.734375 -2.03125 L 1.59375 -2.03125 L 1.59375 -1.984375 C 1.59375 -1.617188 1.679688 -1.300781 1.859375 -1.03125 C 2.035156 -0.757812 2.363281 -0.625 2.84375 -0.625 C 3.132812 -0.625 3.394531 -0.679688 3.625 -0.796875 C 3.863281 -0.921875 4.050781 -1.082031 4.1875 -1.28125 C 4.332031 -1.476562 4.40625 -1.695312 4.40625 -1.9375 C 4.40625 -2.164062 4.328125 -2.347656 4.171875 -2.484375 C 4.015625 -2.628906 3.816406 -2.726562 3.578125 -2.78125 L 2.6875 -2.953125 C 1.8125 -3.140625 1.375 -3.585938 1.375 -4.296875 C 1.375 -4.679688 1.476562 -5.03125 1.6875 -5.34375 C 1.894531 -5.664062 2.175781 -5.914062 2.53125 -6.09375 C 2.894531 -6.28125 3.300781 -6.375 3.75 -6.375 C 4.195312 -6.375 4.5625 -6.28125 4.84375 -6.09375 C 5.132812 -5.90625 5.34375 -5.664062 5.46875 -5.375 C 5.59375 -5.09375 5.65625 -4.789062 5.65625 -4.46875 L 5.65625 -4.421875 L 4.78125 -4.421875 L 4.78125 -4.453125 C 4.78125 -4.765625 4.703125 -5.046875 4.546875 -5.296875 C 4.390625 -5.554688 4.078125 -5.6875 3.609375 -5.6875 C 3.347656 -5.6875 3.101562 -5.628906 2.875 -5.515625 C 2.65625 -5.410156 2.484375 -5.257812 2.359375 -5.0625 C 2.234375 -4.863281 2.171875 -4.648438 2.171875 -4.421875 C 2.171875 -4.203125 2.242188 -4.023438 2.390625 -3.890625 C 2.535156 -3.765625 2.734375 -3.675781 2.984375 -3.625 L 3.78125 -3.46875 C 4.75 -3.257812 5.234375 -2.796875 5.234375 -2.078125 C 5.234375 -1.679688 5.117188 -1.316406 4.890625 -0.984375 C 4.671875 -0.660156 4.367188 -0.398438 3.984375 -0.203125 C 3.597656 -0.015625 3.171875 0.078125 2.703125 0.078125 Z M 2.703125 0.078125 "/></g></g></g></g></g><g clip-path="url(#b0b0543245)"><path fill="#e4e2dd" d="M 340.382812 221.335938 C 330.628906 223.132812 329.171875 224.585938 327.378906 234.34375 C 325.582031 224.585938 324.125 223.132812 314.371094 221.335938 C 324.125 219.539062 325.582031 218.082031 327.378906 208.328125 C 329.171875 218.082031 330.628906 219.539062 340.382812 221.335938 Z M 340.382812 221.335938 " fill-opacity="1" fill-rule="nonzero"/></g></svg>